<?xml version="1.0" ?><svg height="32" id="svg8" version="1.1" viewBox="0 0 8.4666665 8.4666669" width="32" xmlns="http://www.w3.org/2000/svg" xmlns:cc="http://creativecommons.org/ns#" xmlns:dc="http://purl.org/dc/elements/1.1/" xmlns:inkscape="http://www.inkscape.org/namespaces/inkscape" xmlns:rdf="http://www.w3.org/1999/02/22-rdf-syntax-ns#" xmlns:sodipodi="http://sodipodi.sourceforge.net/DTD/sodipodi-0.dtd" xmlns:svg="http://www.w3.org/2000/svg"><defs id="defs2"/><g id="layer1" transform="translate(0,-288.53332)"><path d="M 2 4.9980469 A 1.0001 1.0001 0 0 0 0.99609375 6.0019531 L 0.99609375 12.001953 L 0.99609375 19.998047 L 0.99609375 25.998047 A 1.0001 1.0001 0 0 0 2 27.001953 L 30 27.001953 A 1.0001 1.0001 0 0 0 30.996094 25.998047 L 30.996094 19.998047 L 30.996094 12.001953 L 30.996094 6.0019531 A 1.0001 1.0001 0 0 0 30 4.9980469 L 2 4.9980469 z M 2.9960938 6.9980469 L 15 6.9980469 L 15 11.099609 C 12.723872 11.565864 10.998047 13.595288 10.998047 16.003906 C 10.998047 18.412524 12.723872 20.435545 15 20.900391 L 15 25.001953 L 2.9960938 25.001953 L 2.9960938 21.001953 L 6.0019531 21.001953 A 1.0001 1.0001 0 0 0 6.9980469 19.998047 L 6.9980469 12.001953 A 1.0001 1.0001 0 0 0 6.0019531 10.998047 L 2.9960938 10.998047 L 2.9960938 6.9980469 z M 17 6.9980469 L 29.003906 6.9980469 L 29.003906 10.998047 L 25.998047 10.998047 A 1.0001 1.0001 0 0 0 25.001953 12.001953 L 25.001953 19.998047 A 1.0001 1.0001 0 0 0 25.998047 21.001953 L 29.003906 21.001953 L 29.003906 25.001953 L 17 25.001953 L 17 20.898438 C 19.274615 20.4313 21.001953 18.41044 21.001953 16.003906 C 21.001953 13.598034 19.27369 11.570844 17 11.101562 L 17 6.9980469 z M 2.9960938 13 L 4.9980469 13 L 4.9980469 19 L 2.9960938 19 L 2.9960938 13 z M 15.996094 13 C 17.664793 13 19.001953 14.335207 19.001953 16.003906 C 19.001953 17.672605 17.664793 19 15.996094 19 C 14.327395 19 13 17.672605 13 16.003906 C 13 14.335207 14.327395 13 15.996094 13 z M 27.003906 13 L 29.003906 13 L 29.003906 19 L 27.003906 19 L 27.003906 13 z " id="rect1409" style="color:#000000;font-style:normal;font-variant:normal;font-weight:normal;font-stretch:normal;font-size:medium;line-height:normal;font-family:sans-serif;font-variant-ligatures:normal;font-variant-position:normal;font-variant-caps:normal;font-variant-numeric:normal;font-variant-alternates:normal;font-feature-settings:normal;text-indent:0;text-align:start;text-decoration:none;text-decoration-line:none;text-decoration-style:solid;text-decoration-color:#000000;letter-spacing:normal;word-spacing:normal;text-transform:none;writing-mode:lr-tb;direction:ltr;text-orientation:mixed;dominant-baseline:auto;baseline-shift:baseline;text-anchor:start;white-space:normal;shape-padding:0;clip-rule:nonzero;display:inline;overflow:visible;visibility:visible;opacity:1;isolation:auto;mix-blend-mode:normal;color-interpolation:sRGB;color-interpolation-filters:linearRGB;solid-color:#000000;solid-opacity:1;vector-effect:none;fill:#000000;fill-opacity:1;fill-rule:nonzero;stroke:none;stroke-width:1.99999988;stroke-linecap:round;stroke-linejoin:round;stroke-miterlimit:4;stroke-dasharray:none;stroke-dashoffset:0;stroke-opacity:1;paint-order:fill markers stroke;color-rendering:auto;image-rendering:auto;shape-rendering:auto;text-rendering:auto;enable-background:accumulate" transform="matrix(0.26458333,0,0,0.26458333,0,288.53332)"/></g></svg>